<?xml version="1.0" standalone="no"?>
<!DOCTYPE svg PUBLIC "-//W3C//DTD SVG 20010904//EN"
 "http://www.w3.org/TR/2001/REC-SVG-20010904/DTD/svg10.dtd">
<svg version="1.0" xmlns="http://www.w3.org/2000/svg"
 width="70.000000pt" height="70.000000pt" viewBox="0 0 70.000000 70.000000"
 preserveAspectRatio="xMidYMid meet">
<metadata>
Created by potrace 1.14, written by Peter Selinger 2001-2017
</metadata>
<g transform="translate(0.000000,70.000000) scale(0.100000,-0.100000)"
fill="#000000" stroke="none">
<path d="M0 350 l0 -350 350 0 350 0 0 350 0 350 -350 0 -350 0 0 -350z m448
148 c2 -20 -1 -28 -12 -28 -22 0 -30 -19 -18 -43 6 -12 28 -71 49 -131 33 -95
42 -110 66 -118 21 -8 27 -16 25 -32 -3 -19 -10 -21 -85 -24 l-83 -3 0 27 c0
17 6 28 20 31 11 3 20 7 20 10 0 13 -85 253 -89 253 -3 0 -23 -53 -44 -118
-22 -64 -41 -122 -43 -128 -3 -6 4 -14 16 -17 14 -3 20 -13 20 -31 0 -26 -1
-26 -74 -26 -70 0 -74 1 -78 25 -6 29 -2 35 26 35 18 0 28 20 68 137 26 75 45
140 42 145 -3 4 -14 8 -25 8 -13 0 -19 7 -19 24 0 13 6 27 13 30 6 2 55 4 107
3 l95 -2 3 -27z"/>
</g>
</svg>
